<svg id="Capa_1" data-name="Capa 1" xmlns="http://www.w3.org/2000/svg" viewBox="0 0 1077.83 158.1"><defs><style>.cls-1{fill:#988dfe;}.cls-2{fill:#62da4f;}.cls-3{fill:#63da50;}.cls-4{fill:#63db50;}.cls-5{fill:#63db51;}.cls-6{fill:#64db51;}.cls-7{fill:#fefefe;}</style></defs><path class="cls-1" d="M273.38,483c-28.87-.08-49.42-20.54-48.7-47.68.53-20.3,15-37.59,35.7-42.78,23.29-5.83,46.62,4.44,56.5,24.88,13,26.84-3.11,58.85-32.42,64.52A45.66,45.66,0,0,1,273.38,483Z" transform="translate(251.19 -324.94)"/><path class="cls-2" d="M-85.48,436.71c0-13.32,0-26.64,0-40,0-1.66-.73-3.95,2.35-3.84,14.1.53,28.31-1.48,42.29,1.86,23.27,5.55,33.86,24.06,32,45.74-2.21,25.1-17.91,39.07-44.13,40.21-9.64.42-19.31,0-29,.21-3,.06-3.6-1.05-3.58-3.77C-85.42,463.68-85.49,450.19-85.48,436.71Z" transform="translate(251.19 -324.94)"/><path class="cls-1" d="M404.42,435.65c0-12.8,0-24.22,0-35.64,0-8.08-.91-7,7.25-7.1,3.66,0,7.35.23,11-.08,3.89-.33,5.08.92,5,4.93-.19,26.13-.08,52.27-.14,78.4,0,1.84,1.12,4.65-1.11,5.34-2.71.84-5.75,1.07-8.33-1.51-6-6-12.25-11.73-18.35-17.64-8-7.75-15.93-15.56-23.8-23.26-2.05,1.2-1.31,2.69-1.32,3.86-.06,11.32-.12,22.64,0,34,0,3-.76,4.16-3.91,4-5.15-.23-10.32-.15-15.48,0-2.62.06-3.92-.54-3.91-3.55.09-27.3,0-54.6.07-81.89,0-1.25-.41-3,1.42-3.26,2.25-.33,4.67-.86,6.67.91,2.23,2,4.49,4,6.65,6q17.26,16.6,34.5,33.26C401.51,433.21,402.41,433.91,404.42,435.65Z" transform="translate(251.19 -324.94)"/><path class="cls-1" d="M485.6,439.14c0,12.72-.13,24.87.08,37,.07,3.64-.8,5.06-4.67,4.8a143.75,143.75,0,0,0-15,0c-2.9.1-3.68-1.05-3.68-3.8.08-27.13,0-54.26.07-81.39,0-1.26-.48-3.07,1.17-3.43,2.39-.53,5-1,7.1,1s4.48,4,6.64,6q17.09,16.44,34.16,32.91c.91.87,1.59,2.16,3.18,2.21,1.28-1.22.68-2.81.69-4.21.06-11,.17-22,0-33-.07-3.58,1.15-4.63,4.58-4.43a100.91,100.91,0,0,0,13.47,0c4.1-.32,5.36.94,5.32,5.18-.23,20-.11,39.95-.11,59.92,0,6.16.1,12.32-.05,18.47,0,1.8,1.19,4.55-1.32,5.19s-5.47,1-7.91-1.42c-5.78-5.74-11.79-11.25-17.65-16.92-6.69-6.49-13.31-13.05-20-19.56A18.39,18.39,0,0,0,485.6,439.14Z" transform="translate(251.19 -324.94)"/><path class="cls-2" d="M93.67,424c0,7.65-.17,15.32,0,23,.62,24.07-19.93,39.3-43.17,35.56-18.73-3-29.79-16.56-29.84-35.45,0-16.65.07-33.3-.07-49.94,0-3.11.61-4.47,4.06-4.27a126.72,126.72,0,0,0,15,0c3.6-.22,4.43,1.11,4.39,4.51C43.89,414,44,430.63,44,447.28c0,5.4,2,9.79,7.09,12.2a13.35,13.35,0,0,0,14.56-1.57c3.82-2.88,4.77-7,4.76-11.52,0-16.14.15-32.29-.1-48.44-.07-4.23,1.2-5.44,5.3-5.13a122.72,122.72,0,0,0,14.48,0c2.83-.12,3.72.79,3.67,3.64C93.57,405.63,93.68,414.79,93.67,424Z" transform="translate(251.19 -324.94)"/><path class="cls-2" d="M-174.39,436.68c0-13.31.09-26.63-.07-39.94,0-3.09.88-3.94,3.94-3.91q24.72.23,49.44,0c3.17,0,4,1,3.85,4-.23,4.65-.23,9.32,0,14,.14,3-.82,4.05-3.92,4-8.49-.2-17,.11-25.47-.15-3.66-.12-5.32.81-4.7,4.65a12,12,0,0,1,0,3.49c-.43,3.17.67,4.36,4.05,4.23,6.65-.27,13.32,0,20-.13,2.84-.08,4.35.41,4.05,3.74-.44,4.94,2,11.32-.87,14.5s-9.4.74-14.31,1.07c-2,.13-4,0-6,0-8,.1-6.45-.91-7,6.87-.33,4.81,1,6.28,5.93,6,8-.46,16,0,24-.19,3.12-.07,4.49.62,4.28,4.07-.29,4.81-.17,9.66,0,14.48.07,2.42-.44,3.56-3.24,3.54q-25.23-.18-50.44,0c-3,0-3.53-1.19-3.51-3.82C-174.33,463.65-174.39,450.17-174.39,436.68Z" transform="translate(251.19 -324.94)"/><path class="cls-1" d="M572.51,436.39c0-13,.09-26-.07-38.95,0-3.32.7-4.66,4.36-4.62q24.23.29,48.44,0c3.6,0,4.6,1.14,4.4,4.56a128.77,128.77,0,0,0,0,13.47c.15,3.08-.94,4-4,4-8.48-.17-17,.14-25.46-.15-3.87-.13-5.11,1.22-4.62,4.85a17.18,17.18,0,0,1,0,4c-.26,2.65.91,3.46,3.47,3.41,6.65-.13,13.33.19,20-.13,3.88-.19,5,1.19,4.64,4.83a73.31,73.31,0,0,0,0,10.48c.18,3-.86,4.12-4,4-6.49-.19-13,.16-19.47-.14-3.84-.18-4.84,1.15-4.7,4.83.37,9.59-1.07,7.94,7.81,8.06,7.32.09,14.65.14,22,0,3.1-.08,4.56.63,4.36,4.09a135.61,135.61,0,0,0,0,14c.13,3-.76,4.07-3.9,4q-24.72-.21-49.44,0c-3.22,0-3.85-1.25-3.83-4.12C572.57,463.35,572.51,449.87,572.51,436.39Z" transform="translate(251.19 -324.94)"/><path class="cls-1" d="M174.26,482.88c-31.2-.06-52.15-21.05-51.57-48,.44-20.84,17.5-39.66,38.4-43.08,14.87-2.44,28,1.1,40,9.83,2.24,1.64,2.58,2.79.63,5a138.49,138.49,0,0,0-8.47,11.11c-1.89,2.69-3.4,3-6.34,1-11.44-7.95-23.55-7.48-32.52.84-8.69,8-10.47,20.59-4.25,29.91,6.57,9.86,19.28,13.87,29.86,9.24a40.17,40.17,0,0,0,7.74-4.5c2-1.49,3.25-1.79,4.84.48,3,4.36,6.23,8.65,9.55,12.8,1.56,2,1.11,2.92-.67,4.37C192.43,479.25,182.11,482.71,174.26,482.88Z" transform="translate(251.19 -324.94)"/><path class="cls-1" d="M708,482.88c-31.06-.08-52-21.17-51.35-48.13.48-20.61,17.31-39.29,38-42.88,14.85-2.58,28,.94,40,9.56,2.31,1.65,3.36,3,.79,5.35a29.88,29.88,0,0,0-3.06,3.93c-2.47,3.13-4.36,7.47-7.59,9.06-3.45,1.69-6.26-3.12-9.68-4.5-10-4-20.58-2.1-28.06,5.48a22.71,22.71,0,0,0-4.85,25.36c6.37,14.68,24.43,19.06,38.3,8.94,3.25-2.38,4.77-2.38,6.91,1a114.6,114.6,0,0,0,8.36,11.19c1.62,2,1.48,3.08-.57,4.76C726.21,479.37,715.86,482.72,708,482.88Z" transform="translate(251.19 -324.94)"/><path class="cls-1" d="M805.55,448.26c0,9.49-.13,19,.07,28.48.07,3.33-1,4.36-4.27,4.19a120.92,120.92,0,0,0-14,0c-3.86.25-5.15-.89-5.1-4.95.21-18.49-.07-37,.21-55.47.07-4.67-1.3-6.15-5.86-5.74-4.13.38-8.32,0-12.48.12-2.62.1-3.54-.9-3.46-3.49.14-5,.12-10,0-15-.06-2.48.65-3.59,3.37-3.58q29.73.12,59.48,0c2.47,0,3.14,1,3.09,3.3-.1,5-.15,10,0,15,.1,2.78-.78,3.89-3.67,3.77-4.49-.19-9,.12-13.49-.1-3.06-.15-4,.89-4,4C805.66,428.6,805.55,438.43,805.55,448.26Z" transform="translate(251.19 -324.94)"/><path class="cls-2" d="M-251.19,391.83c16.47-16.89,32.6-33.42,48.72-50a6.75,6.75,0,0,1,3.34-2q30.8-7.39,61.56-14.86a6.49,6.49,0,0,1,1.85.1c.08,1.6-1.11,2.17-1.89,2.94q-21,20.64-42.09,41.27A14.56,14.56,0,0,1-186,373c-13.39,3.94-26.71,8.16-40.15,11.91-4.09,1.15-5.73,2.78-5.06,7.18,1.12,7.39,1.76,14.86,2.5,22.31.15,1.45,1.5,3.82-.91,4.16-2.84.41-2.07-2.54-2.26-4-.93-7.43-1.91-14.87-2.24-22.34-.19-4.32-1.66-4.46-5.12-3.32C-243,390.11-246.66,391.76-251.19,391.83Z" transform="translate(251.19 -324.94)"/><path class="cls-3" d="M-152.61,350.14a31.26,31.26,0,0,1,2.1,2.33c4.8,6.53,9.47,13.16,14.4,19.59,1.69,2.21,1.13,3.21-.92,4.55-1.89,1.25-3.2,2.58-5.11-.21-4.59-6.68-9.52-13.12-14.24-19.71-.58-.81-2.17-1.67-1-2.85A38.61,38.61,0,0,1-152.61,350.14Z" transform="translate(251.19 -324.94)"/><path class="cls-4" d="M-210.93,384.5c1.24-.12,1.69.9,2.24,1.66,4.92,6.71,9.66,13.57,14.77,20.14,2.12,2.72,0,3.25-1.41,4.48-1.73,1.46-3,2.15-4.73-.3-4.56-6.56-9.39-12.94-14.07-19.42C-215.94,388.57-214,384.76-210.93,384.5Z" transform="translate(251.19 -324.94)"/><path class="cls-5" d="M-236.17,447.65c.34-3,.27-5.57,1-7.89,1.32-4.35,5.86-2.61,8.73-4.1,1.81-1,2.9-.25,4.09,1.35,4.59,6.21,4.66,6.16-3.06,8.09l-8.69,2.18C-234.61,447.4-235.1,447.46-236.17,447.65Z" transform="translate(251.19 -324.94)"/><path class="cls-6" d="M-224.23,426.53c-.45,3.82-2.3,6.24-6,6.23s-5.92-2.31-5.9-6a5.48,5.48,0,0,1,5.62-5.78C-226.78,420.83-224.94,423.26-224.23,426.53Z" transform="translate(251.19 -324.94)"/><path class="cls-7" d="M272.82,460.86c-14-.06-24.38-10.38-24.27-24.16.1-13.12,10.94-23.62,24.46-23.69a24.29,24.29,0,0,1,24.62,24.13C297.59,450.63,286.83,460.92,272.82,460.86Z" transform="translate(251.19 -324.94)"/><path class="cls-7" d="M-63,436.73c0-6.16.09-12.32,0-18.48-.06-2.54.71-3.7,3.38-3.48s5.7,0,8.47.41c12.36,2,19.24,10.16,19,22.29-.2,11.79-7.49,19.38-20.34,21.18C-63,460.12-63,460.12-63,449.71Z" transform="translate(251.19 -324.94)"/><path class="cls-7" d="M-161.12,338.29c-7.47,8.08-15.91,17.22-24.39,26.33a4,4,0,0,1-1.7,1c-12.7,3.83-25.41,7.62-38.65,10.71,5.79-5.91,12.05-11.44,17.26-17.82a42,42,0,0,1,27.72-15.64C-173.57,341.8-166.43,339.56-161.12,338.29Z" transform="translate(251.19 -324.94)"/></svg>